<mxfile host="app.diagrams.net" modified="2021-02-20T09:41:04.620Z" agent="5.0 (Macintosh; Intel Mac OS X 10_14_6) AppleWebKit/537.36 (KHTML, like Gecko) Chrome/88.0.4324.150 Safari/537.36" etag="i6I-wqM74vBrDT7RmTqo" version="14.2.9" type="github">
  <diagram id="kgpKYQtTHZ0yAKxKKP6v" name="Page-1">
    <mxGraphModel dx="1186" dy="773" grid="1" gridSize="10" guides="1" tooltips="1" connect="1" arrows="1" fold="1" page="1" pageScale="1" pageWidth="1654" pageHeight="1169" math="0" shadow="0">
      <root>
        <mxCell id="0" />
        <mxCell id="1" parent="0" />
        <mxCell id="dRW7kFICl72U-WHUE1e9-15" value="" style="edgeStyle=orthogonalEdgeStyle;rounded=0;orthogonalLoop=1;jettySize=auto;html=1;fontSize=13;" edge="1" parent="1" source="dRW7kFICl72U-WHUE1e9-11" target="dRW7kFICl72U-WHUE1e9-14">
          <mxGeometry relative="1" as="geometry" />
        </mxCell>
        <mxCell id="dRW7kFICl72U-WHUE1e9-11" value="" style="whiteSpace=wrap;html=1;" vertex="1" parent="1">
          <mxGeometry x="260" y="122" width="280" height="340" as="geometry" />
        </mxCell>
        <mxCell id="dRW7kFICl72U-WHUE1e9-5" value="" style="edgeStyle=orthogonalEdgeStyle;rounded=0;orthogonalLoop=1;jettySize=auto;html=1;" edge="1" parent="1" source="dRW7kFICl72U-WHUE1e9-2" target="dRW7kFICl72U-WHUE1e9-3">
          <mxGeometry relative="1" as="geometry" />
        </mxCell>
        <mxCell id="dRW7kFICl72U-WHUE1e9-2" value="Activity.setContentView()" style="rounded=1;whiteSpace=wrap;html=1;fillColor=#cce5ff;strokeColor=#36393d;" vertex="1" parent="1">
          <mxGeometry x="300" y="140" width="200" height="50" as="geometry" />
        </mxCell>
        <mxCell id="dRW7kFICl72U-WHUE1e9-6" value="" style="edgeStyle=orthogonalEdgeStyle;rounded=0;orthogonalLoop=1;jettySize=auto;html=1;" edge="1" parent="1" source="dRW7kFICl72U-WHUE1e9-3" target="dRW7kFICl72U-WHUE1e9-4">
          <mxGeometry relative="1" as="geometry" />
        </mxCell>
        <mxCell id="dRW7kFICl72U-WHUE1e9-3" value="getWindow().setContentView()" style="rounded=1;whiteSpace=wrap;html=1;fillColor=#cce5ff;strokeColor=#36393d;" vertex="1" parent="1">
          <mxGeometry x="300" y="223" width="200" height="50" as="geometry" />
        </mxCell>
        <mxCell id="dRW7kFICl72U-WHUE1e9-9" value="" style="edgeStyle=orthogonalEdgeStyle;rounded=0;orthogonalLoop=1;jettySize=auto;html=1;" edge="1" parent="1" source="dRW7kFICl72U-WHUE1e9-4" target="dRW7kFICl72U-WHUE1e9-8">
          <mxGeometry relative="1" as="geometry" />
        </mxCell>
        <mxCell id="dRW7kFICl72U-WHUE1e9-4" value="PhoneWindow.setContentView()" style="rounded=1;whiteSpace=wrap;html=1;fillColor=#cce5ff;strokeColor=#36393d;" vertex="1" parent="1">
          <mxGeometry x="300" y="309" width="200" height="50" as="geometry" />
        </mxCell>
        <mxCell id="dRW7kFICl72U-WHUE1e9-8" value="LayoutInflater.inflate()" style="rounded=1;whiteSpace=wrap;html=1;fillColor=#cce5ff;strokeColor=#36393d;" vertex="1" parent="1">
          <mxGeometry x="300" y="396" width="200" height="50" as="geometry" />
        </mxCell>
        <mxCell id="dRW7kFICl72U-WHUE1e9-12" value="Activity的ContentView的创建和设置" style="text;html=1;align=center;verticalAlign=middle;resizable=0;points=[];autosize=1;fontStyle=1;fontSize=13;" vertex="1" parent="1">
          <mxGeometry x="285" y="500" width="230" height="20" as="geometry" />
        </mxCell>
        <mxCell id="dRW7kFICl72U-WHUE1e9-13" value="&lt;font color=&quot;#333333&quot; face=&quot;open sans, clear sans, helvetica neue, helvetica, arial, sans-serif&quot;&gt;&lt;span style=&quot;background-color: rgb(255 , 255 , 255)&quot;&gt;开始执行View的第一次绘制&lt;br&gt;requestLayout是触发绘制的真正节点&lt;br&gt;&lt;/span&gt;&lt;/font&gt;" style="text;html=1;align=center;verticalAlign=middle;resizable=0;points=[];autosize=1;fontSize=13;fontStyle=1" vertex="1" parent="1">
          <mxGeometry x="670" y="490" width="230" height="40" as="geometry" />
        </mxCell>
        <mxCell id="dRW7kFICl72U-WHUE1e9-21" value="" style="edgeStyle=orthogonalEdgeStyle;rounded=0;orthogonalLoop=1;jettySize=auto;html=1;fontSize=13;" edge="1" parent="1" source="dRW7kFICl72U-WHUE1e9-14" target="dRW7kFICl72U-WHUE1e9-20">
          <mxGeometry relative="1" as="geometry" />
        </mxCell>
        <mxCell id="dRW7kFICl72U-WHUE1e9-14" value="" style="whiteSpace=wrap;html=1;" vertex="1" parent="1">
          <mxGeometry x="645" y="122" width="280" height="340" as="geometry" />
        </mxCell>
        <mxCell id="dRW7kFICl72U-WHUE1e9-16" value="&lt;span style=&quot;color: rgb(51, 51, 51); font-family: &amp;quot;open sans&amp;quot;, &amp;quot;clear sans&amp;quot;, &amp;quot;helvetica neue&amp;quot;, helvetica, arial, sans-serif;&quot;&gt;ActivityThread.handleResumeActivity&lt;/span&gt;" style="rounded=1;whiteSpace=wrap;html=1;fillColor=#cce5ff;strokeColor=#36393d;labelBackgroundColor=none;" vertex="1" parent="1">
          <mxGeometry x="685" y="140" width="200" height="50" as="geometry" />
        </mxCell>
        <mxCell id="dRW7kFICl72U-WHUE1e9-17" value="&lt;span style=&quot;color: rgb(51, 51, 51); font-family: &amp;quot;open sans&amp;quot;, &amp;quot;clear sans&amp;quot;, &amp;quot;helvetica neue&amp;quot;, helvetica, arial, sans-serif;&quot;&gt;WindowManagerImpl.addView&lt;/span&gt;" style="rounded=1;whiteSpace=wrap;html=1;fillColor=#cce5ff;strokeColor=#36393d;labelBackgroundColor=none;" vertex="1" parent="1">
          <mxGeometry x="685" y="223" width="200" height="50" as="geometry" />
        </mxCell>
        <mxCell id="dRW7kFICl72U-WHUE1e9-18" value="&lt;span style=&quot;color: rgb(51, 51, 51); font-family: &amp;quot;open sans&amp;quot;, &amp;quot;clear sans&amp;quot;, &amp;quot;helvetica neue&amp;quot;, helvetica, arial, sans-serif;&quot;&gt;ViewRootImpl.setView&lt;/span&gt;" style="rounded=1;whiteSpace=wrap;html=1;fillColor=#cce5ff;strokeColor=#36393d;labelBackgroundColor=none;" vertex="1" parent="1">
          <mxGeometry x="685" y="309" width="200" height="50" as="geometry" />
        </mxCell>
        <mxCell id="dRW7kFICl72U-WHUE1e9-19" value="&lt;span style=&quot;color: rgb(51, 51, 51); font-family: &amp;quot;open sans&amp;quot;, &amp;quot;clear sans&amp;quot;, &amp;quot;helvetica neue&amp;quot;, helvetica, arial, sans-serif;&quot;&gt;ViewRootImpl.requestLayout &lt;/span&gt;" style="rounded=1;whiteSpace=wrap;html=1;fillColor=#cce5ff;strokeColor=#36393d;labelBackgroundColor=none;" vertex="1" parent="1">
          <mxGeometry x="685" y="396" width="200" height="50" as="geometry" />
        </mxCell>
        <mxCell id="dRW7kFICl72U-WHUE1e9-20" value="" style="whiteSpace=wrap;html=1;" vertex="1" parent="1">
          <mxGeometry x="1020" y="122" width="280" height="340" as="geometry" />
        </mxCell>
        <mxCell id="dRW7kFICl72U-WHUE1e9-22" value="&lt;span style=&quot;color: rgb(51 , 51 , 51) ; font-family: &amp;#34;open sans&amp;#34; , &amp;#34;clear sans&amp;#34; , &amp;#34;helvetica neue&amp;#34; , &amp;#34;helvetica&amp;#34; , &amp;#34;arial&amp;#34; , sans-serif&quot;&gt;View.onMeasure()&lt;/span&gt;" style="rounded=1;whiteSpace=wrap;html=1;fillColor=#cce5ff;strokeColor=#36393d;labelBackgroundColor=none;" vertex="1" parent="1">
          <mxGeometry x="1060" y="140" width="200" height="50" as="geometry" />
        </mxCell>
        <mxCell id="dRW7kFICl72U-WHUE1e9-23" value="&lt;span style=&quot;color: rgb(51 , 51 , 51) ; font-family: &amp;#34;open sans&amp;#34; , &amp;#34;clear sans&amp;#34; , &amp;#34;helvetica neue&amp;#34; , &amp;#34;helvetica&amp;#34; , &amp;#34;arial&amp;#34; , sans-serif&quot;&gt;View.onLayout()&lt;/span&gt;" style="rounded=1;whiteSpace=wrap;html=1;fillColor=#cce5ff;strokeColor=#36393d;labelBackgroundColor=none;" vertex="1" parent="1">
          <mxGeometry x="1060" y="267" width="200" height="50" as="geometry" />
        </mxCell>
        <mxCell id="dRW7kFICl72U-WHUE1e9-24" value="&lt;span style=&quot;color: rgb(51 , 51 , 51) ; font-family: &amp;#34;open sans&amp;#34; , &amp;#34;clear sans&amp;#34; , &amp;#34;helvetica neue&amp;#34; , &amp;#34;helvetica&amp;#34; , &amp;#34;arial&amp;#34; , sans-serif&quot;&gt;View.onDraw()&lt;/span&gt;" style="rounded=1;whiteSpace=wrap;html=1;fillColor=#cce5ff;strokeColor=#36393d;labelBackgroundColor=none;" vertex="1" parent="1">
          <mxGeometry x="1060" y="396" width="200" height="50" as="geometry" />
        </mxCell>
        <mxCell id="dRW7kFICl72U-WHUE1e9-25" value="View的绘制" style="text;html=1;align=center;verticalAlign=middle;resizable=0;points=[];autosize=1;fontStyle=1;fontSize=13;" vertex="1" parent="1">
          <mxGeometry x="1120" y="500" width="80" height="20" as="geometry" />
        </mxCell>
      </root>
    </mxGraphModel>
  </diagram>
</mxfile>
